<svg width="335" height="162" viewBox="0 0 335 162" fill="none" xmlns="http://www.w3.org/2000/svg">
<rect width="335" height="162" fill="#F5F5F5"/>
<rect width="335" height="162" fill="white"/>
<path d="M249.337 9.0188H155C191.184 29.4549 198.076 62.4312 196.999 76.3649C198.033 115.844 169.43 143.904 155 153H258.383C322.997 146.033 332.689 99.0071 329.458 76.3649C328.424 21.0946 275.613 8.43823 249.337 9.0188Z" fill="#FEFCE8" stroke="#EAE5BF" stroke-width="4"/>
<path d="M74.8227 9.0188H157.651C191.781 29.3199 197 62.3976 197 76.3649C197 118.728 171.925 142.531 157.651 153H66.8803C10.1488 146.033 1.63907 99.007 4.47565 76.3649C5.38335 21.0946 51.7519 8.43823 74.8227 9.0188Z" fill="#F8D104" stroke="#DFBD08" stroke-width="5"/>
<path d="M16.29 66.575H26.575C32.3683 66.575 36.2183 67.5467 38.125 69.49C40.0317 71.4333 40.985 73.78 40.985 76.53C40.985 78.3633 40.5817 80.105 39.775 81.755C38.9683 83.3683 37.685 84.5783 35.925 85.385C38.5283 86.045 40.435 87.2 41.645 88.85C42.8917 90.5 43.515 92.4433 43.515 94.68C43.515 97.0267 43.1483 99.08 42.415 100.84C41.6817 102.6 40.16 104.067 37.85 105.24C35.54 106.413 32.2033 107 27.84 107H16.29V66.575ZM27.565 83.735C30.1683 83.735 32.02 83.1117 33.12 81.865C34.22 80.5817 34.77 78.9683 34.77 77.025C34.77 73.5417 32.2767 71.8 27.29 71.8H22.34V83.735H27.565ZM28.665 101.83C32.0017 101.83 34.2383 101.17 35.375 99.85C36.5483 98.4933 37.135 96.7883 37.135 94.735C37.135 92.7917 36.475 91.2883 35.155 90.225C33.835 89.1617 31.8367 88.63 29.16 88.63H22.34V101.83H28.665ZM64.6337 107.55C59.5737 107.55 55.907 106.028 53.6337 102.985C51.3604 99.9417 50.2237 95.5233 50.2237 89.73V66.575H56.3837V89.84C56.3837 94.13 57.0254 97.21 58.3087 99.08C59.592 100.913 61.7004 101.83 64.6337 101.83C67.567 101.83 69.657 100.932 70.9037 99.135C72.187 97.3017 72.8287 94.2033 72.8287 89.84V66.575H79.0437V89.73C79.0437 95.4867 77.8337 99.905 75.4137 102.985C73.0304 106.028 69.437 107.55 64.6337 107.55ZM96.4297 107.55C94.2297 107.55 92.0481 107.165 89.8847 106.395C87.7214 105.625 86.1631 104.763 85.2097 103.81L88.1247 98.585C88.8947 99.2817 90.0864 100.015 91.6997 100.785C93.3497 101.518 94.9264 101.885 96.4297 101.885C98.3731 101.885 99.9497 101.427 101.16 100.51C102.406 99.5933 103.03 98.3283 103.03 96.715C103.03 95.4683 102.7 94.3867 102.04 93.47C101.38 92.5533 100.573 91.8017 99.6197 91.215C98.6664 90.5917 97.3097 89.84 95.5497 88.96C93.4597 87.9333 92.0297 87.1633 91.2597 86.65C87.7031 84.2667 85.9247 80.9667 85.9247 76.75C85.9247 73.2667 87.0797 70.6083 89.3897 68.775C91.6997 66.905 94.6147 65.97 98.1347 65.97C101.911 65.97 105.12 67.0517 107.76 69.215L104.845 74.22C104.148 73.4867 103.158 72.8633 101.875 72.35C100.628 71.8 99.2897 71.525 97.8597 71.525C96.0264 71.525 94.5781 71.9467 93.5147 72.79C92.4881 73.5967 91.9747 74.8067 91.9747 76.42C91.9747 77.5567 92.3047 78.5833 92.9647 79.5C93.6247 80.38 94.4497 81.15 95.4397 81.81C96.4664 82.47 97.8414 83.2767 99.5647 84.23C101.215 85.1467 102.48 85.88 103.36 86.43C104.24 86.9433 105.065 87.5667 105.835 88.3C106.898 89.2533 107.76 90.39 108.42 91.71C109.08 93.03 109.41 94.4783 109.41 96.055C109.41 98.5117 108.841 100.602 107.705 102.325C106.605 104.048 105.065 105.35 103.085 106.23C101.141 107.11 98.9231 107.55 96.4297 107.55ZM134.401 107.385C130.221 107.385 126.591 106.45 123.511 104.58C120.468 102.71 118.14 100.217 116.526 97.1C114.913 93.9467 114.106 90.4817 114.106 86.705C114.106 82.7083 114.968 79.1333 116.691 75.98C118.451 72.8267 120.908 70.37 124.061 68.61C127.215 66.8133 130.79 65.915 134.786 65.915C136.583 65.915 138.251 66.1167 139.791 66.52C141.368 66.8867 142.67 67.3267 143.696 67.84C144.723 68.3167 145.401 68.72 145.731 69.05L143.036 74.55C140.8 72.57 137.885 71.58 134.291 71.58C131.761 71.58 129.47 72.2033 127.416 73.45C125.363 74.6967 123.75 76.475 122.576 78.785C121.403 81.095 120.816 83.7717 120.816 86.815C120.816 89.6017 121.33 92.1317 122.356 94.405C123.42 96.6783 124.96 98.475 126.976 99.795C128.993 101.115 131.395 101.775 134.181 101.775C137.408 101.775 140.525 100.858 143.531 99.025L145.346 104.25C144.54 104.983 143.055 105.698 140.891 106.395C138.765 107.055 136.601 107.385 134.401 107.385ZM166.544 66.52L186.014 107H178.919L175.454 99.08H156.919L153.454 107H146.579L165.939 66.52H166.544ZM163.794 83.735L159.394 93.525H173.034L168.689 83.79L166.324 78.235H166.214L163.794 83.735Z" fill="black"/>
<path d="M213.277 88.135L210.747 82.415L209.592 88.135L205.852 107H199.747L208.107 66.575H208.767L219.877 88.41L223.177 95.725L226.477 88.41L237.367 66.575H237.972L246.662 107H240.612L236.542 88.135L235.332 82.415L233.132 88.135L223.342 107H223.012L213.277 88.135ZM252.026 66.575H269.736V71.965H258.131V83.13H267.481V88.63H258.131V101.555H271.551V107H252.026V66.575ZM277.755 66.575H287.49C295.63 66.575 301.313 68.5 304.54 72.35C307.803 76.2 309.435 80.7833 309.435 86.1C309.435 89.8033 308.738 93.2317 307.345 96.385C305.952 99.5017 303.642 102.05 300.415 104.03C297.225 106.01 293.027 107 287.82 107H277.755V66.575ZM288.48 101.555C293.54 101.555 297.207 100.125 299.48 97.265C301.79 94.3683 302.945 90.7383 302.945 86.375C302.945 82.1217 301.79 78.6567 299.48 75.98C297.17 73.3033 293.503 71.965 288.48 71.965H283.915V101.555H288.48ZM316.336 66.575H322.496V107H316.336V66.575Z" fill="#26DBC5"/>
</svg>
